<svg width="26" height="26" viewBox="0 0 26 26" fill="none" xmlns="http://www.w3.org/2000/svg">
<g clip-path="url(#clip0_1236_1158)">
<path d="M19.4091 25.0768C19.4724 25.7018 18.8246 26.1651 18.2297 25.9202L15.2842 24.7069L13.1896 23.8445L11.095 24.7069L8.11716 25.9335C7.52997 26.1753 6.88766 25.7266 6.93595 25.1082L7.67938 15.6001H18.4515L19.4091 25.0768Z" fill="#5D54FE"/>
<path d="M15.2534 18.2002V24.9602L13.1734 24.1305L11.0934 24.9602V18.2002H15.2534Z" fill="white" fill-opacity="0.5"/>
<path d="M12.9999 20.8C18.7437 20.8 23.3999 16.1438 23.3999 10.4C23.3999 4.65624 18.7437 0 12.9999 0C7.25615 0 2.59991 4.65624 2.59991 10.4C2.59991 16.1438 7.25615 20.8 12.9999 20.8Z" fill="#7D7BFC"/>
<path d="M12.9999 19.0667C17.7864 19.0667 21.6666 15.1865 21.6666 10.4001C21.6666 5.6136 17.7864 1.7334 12.9999 1.7334C8.21345 1.7334 4.33325 5.6136 4.33325 10.4001C4.33325 15.1865 8.21345 19.0667 12.9999 19.0667Z" fill="#6534FF"/>
<path d="M19.9333 10.3996C19.9333 10.6011 19.9252 10.801 19.9072 10.9985C19.6043 14.5474 16.6275 17.3335 13.0002 17.3335C9.3724 17.3335 6.39563 14.548 6.09269 10.9985C6.07473 10.801 6.06662 10.6011 6.06662 10.3996C6.06662 6.57087 9.17082 3.4668 13.0008 3.4668C16.8291 3.4668 19.9333 6.57087 19.9333 10.3996Z" fill="#382AFE"/>
<path d="M13.4847 6.38097L14.4056 8.33104C14.4841 8.4971 14.6361 8.61262 14.8114 8.63953L16.8712 8.95197C17.3134 9.01892 17.4899 9.58733 17.1702 9.91289L15.6795 11.4311C15.5526 11.5604 15.4942 11.7468 15.5244 11.9299L15.8761 14.0736C15.9515 14.5337 15.4892 14.8849 15.0935 14.6676L13.251 13.6555C13.094 13.5695 12.9062 13.5695 12.7491 13.6555L10.9067 14.6676C10.511 14.8849 10.0486 14.5337 10.124 14.0736L10.4758 11.9299C10.5059 11.7474 10.4475 11.5604 10.3206 11.4311L8.82998 9.91289C8.51025 9.58668 8.68676 9.01892 9.12899 8.95197L11.1888 8.63953C11.3646 8.61262 11.516 8.49776 11.5946 8.33104L12.5154 6.38097C12.7158 5.9622 13.2875 5.9622 13.4847 6.38097Z" fill="#EDF5FE"/>
<path d="M19.9333 6.93353C20.4119 6.93353 20.8 6.54551 20.8 6.06686C20.8 5.58822 20.4119 5.2002 19.9333 5.2002C19.4546 5.2002 19.0666 5.58822 19.0666 6.06686C19.0666 6.54551 19.4546 6.93353 19.9333 6.93353Z" fill="white"/>
<path d="M6.54268 15.6H6.45741C6.45741 14.6741 5.89443 13.9235 5.20004 13.9235V13.8098C5.89443 13.8098 6.45741 13.0591 6.45741 12.1333H6.54268C6.54268 13.0591 7.10566 13.8098 7.80004 13.8098V13.9235C7.10507 13.9235 6.54268 14.6741 6.54268 15.6Z" fill="white"/>
</g>
<defs>
<clipPath id="clip0_1236_1158">
<rect width="26" height="26" fill="white"/>
</clipPath>
</defs>
</svg>
