<svg width="16" height="16" viewBox="0 0 16 16" fill="none" xmlns="http://www.w3.org/2000/svg">
<rect width="16" height="16" fill="white"/>
<path d="M9.56976 8.1476L9.52384 7.98315C9.42665 7.63511 9.24097 7.30659 8.96711 7.03328L8.96704 7.03321C8.11853 6.18473 6.74261 6.18423 5.89417 7.03319L5.89414 7.03321L3.0543 9.87296C3.05429 9.87297 3.05428 9.87298 3.05427 9.87298C2.20575 10.722 2.20529 12.0974 3.05425 12.9457L3.0543 12.9458C3.90274 13.7947 5.27921 13.7937 6.12658 12.9458L6.12661 12.9458L8.30964 10.7634L8.34005 10.733L8.38304 10.7341L8.57087 10.7392C8.79336 10.7391 9.01253 10.717 9.22563 10.6746L9.54905 10.6103L9.31584 10.8434L6.66978 13.4889C6.09623 14.063 5.34314 14.35 4.59044 14.35C3.83775 14.35 3.08467 14.063 2.51113 13.4889C2.51112 13.4889 2.51111 13.4889 2.5111 13.4889M9.56976 8.1476L2.58185 9.40057C1.47272 10.5091 1.47272 12.3097 2.58185 13.4182L2.5111 13.4889M9.56976 8.1476L9.69073 8.0271L10.1379 7.58164L10.1847 7.53498L10.1602 7.4736C10.0166 7.11529 9.80007 6.77997 9.51021 6.49012L9.56976 8.1476ZM2.5111 13.4889C1.36295 12.3413 1.36297 10.4774 2.51114 9.32986C2.51114 9.32985 2.51115 9.32984 2.51116 9.32984M2.5111 13.4889L2.51116 9.32984M2.51116 9.32984L5.35097 6.49012C5.92453 5.916 6.6782 5.62898 7.43088 5.62898C8.18299 5.62898 8.93665 5.916 9.5102 6.4901L2.51116 9.32984ZM6.47608 8.01309L6.43041 7.84811L6.30913 7.96893L5.86139 8.41495L5.8146 8.46155L5.83909 8.52288C5.98267 8.8824 6.19978 9.21887 6.49018 9.50985L6.49021 9.50988C7.06376 10.084 7.81685 10.371 8.56955 10.371C9.32225 10.371 10.0753 10.084 10.6489 9.50988L13.4893 6.67015L13.4893 6.67013C14.6369 5.522 14.6369 3.65869 13.4893 2.51111C12.9157 1.93701 12.1621 1.65 11.41 1.65C10.6573 1.65 9.90367 1.93701 9.33012 2.51111C9.33011 2.51112 9.3301 2.51113 9.33008 2.51114L6.68458 5.15656L6.45144 5.38968L6.7748 5.32535C6.98789 5.28295 7.20705 5.26088 7.42953 5.2608L7.61739 5.26587L7.66038 5.26703L7.6908 5.23662L9.87326 3.05423L9.87328 3.05421C10.7217 2.20525 12.0976 2.20576 12.9462 3.05423L12.9462 3.05426C13.7952 3.9027 13.7952 5.27855 12.9462 6.12699L12.9462 6.12701L10.1057 8.96678L10.1057 8.96681C9.25834 9.81468 7.8819 9.81577 7.03346 8.96686C6.7589 8.69177 6.5727 8.3621 6.47608 8.01309Z" fill="black" stroke="black" stroke-width="0.2"/>
</svg>
